<svg xmlns="http://www.w3.org/2000/svg" version="1.1" xmlns:xlink="http://www.w3.org/1999/xlink" width="43.899933mm" height="50.800056mm" viewBox="0 0 43.899933 50.800056" id="svg3" sodipodi:docname="logo.svg" xml:space="preserve" inkscape:version="1.4.4 (1:1.4.4+202605061436+dcaf3e7d9e)" xmlns:inkscape="http://www.inkscape.org/namespaces/inkscape" xmlns:sodipodi="http://sodipodi.sourceforge.net/DTD/sodipodi-0.dtd" xmlns:svg="http://www.w3.org/2000/svg"><metadata><rdf:RDF xmlns:rdf="http://www.w3.org/1999/02/22-rdf-syntax-ns#" xmlns:dc="http://purl.org/dc/elements/1.1/"><rdf:Description><dc:creator>RealFaviconGenerator</dc:creator><dc:source>https://realfavicongenerator.net</dc:source></rdf:Description></rdf:RDF></metadata><sodipodi:namedview inkscape:document-units="mm" inkscape:export-xdpi="300" inkscape:export-ydpi="300" id="namedview1" pagecolor="#ffffff" bordercolor="#000000" borderopacity="0.25" inkscape:showpageshadow="2" inkscape:pageopacity="0.0" inkscape:pagecheckerboard="0" inkscape:deskcolor="#d1d1d1" inkscape:zoom="1.5928299" inkscape:cx="-136.54942" inkscape:cy="84.440905" inkscape:window-width="1920" inkscape:window-height="1052" inkscape:window-x="0" inkscape:window-y="0" inkscape:window-maximized="1" inkscape:current-layer="svg3"></sodipodi:namedview><defs id="defs2"><marker style="overflow:visible" id="ConcaveTriangle" refX="0" refY="0" orient="auto-start-reverse" inkscape:stockid="Concave triangle arrow" markerWidth="1" markerHeight="1" viewBox="0 0 1 1" inkscape:isstock="true" inkscape:collect="always" preserveAspectRatio="xMidYMid"><path transform="scale(0.7)" d="M -2,-4 9,0 -2,4 c 2,-2.33 2,-5.66 0,-8 z" style="fill:context-stroke;fill-rule:evenodd;stroke:none" id="path7"></path></marker><rect x="-94.55733" y="183.34356" width="181.56783" height="67.477532" id="rect20"></rect><!-- Clip path: limits illustration to inner hexagon --><clipPath id="innerHexClip"><polygon points="22.092,1.31 42.954,13.355 42.954,37.445 22.092,49.490 1.23,37.445 1.23,13.355" id="polygon1"></polygon></clipPath><!-- Text arc: convex-upward quadratic bezier for package name --><!-- Midpoint at approx. (22.092, 7.5) · adjust control point y to change curvature --><path id="textArc" d="M 4,15 Q 22.092,6 40,15" fill="none"></path><marker style="overflow:visible" id="ConcaveTriangle-3" refX="0" refY="0" orient="auto-start-reverse" inkscape:stockid="Concave triangle arrow" markerWidth="1" markerHeight="1" viewBox="0 0 1 1" inkscape:isstock="true" inkscape:collect="always" preserveAspectRatio="xMidYMid"><path transform="scale(0.7)" d="M -2,-4 9,0 -2,4 c 2,-2.33 2,-5.66 0,-8 z" style="fill:context-stroke;fill-rule:evenodd;stroke:none" id="path7-9"></path></marker><marker style="overflow:visible" id="ConcaveTriangle-3-2" refX="0" refY="0" orient="auto-start-reverse" inkscape:stockid="Concave triangle arrow" markerWidth="1" markerHeight="1" viewBox="0 0 1 1" inkscape:isstock="true" inkscape:collect="always" preserveAspectRatio="xMidYMid"><path transform="scale(0.7)" d="M -2,-4 9,0 -2,4 c 2,-2.33 2,-5.66 0,-8 z" style="fill:context-stroke;fill-rule:evenodd;stroke:none" id="path7-9-9"></path></marker><rect x="-94.557327" y="183.34357" width="181.56783" height="67.477531" id="rect20-8"></rect></defs><path style="color:#000000;font-variation-settings:normal;fill:#faefd1;fill-opacity:1;stroke:#000000;stroke-width:0.666815;stroke-linecap:butt;stroke-linejoin:miter;stroke-miterlimit:4.1215;stroke-dasharray:none;stroke-dashoffset:0;stroke-opacity:1;marker:none;marker-start:none;marker-mid:none;marker-end:none;paint-order:fill markers stroke;stop-color:#000000" d="M 43.425191,12.892936 V 37.90712 L 21.949968,50.414212 0.47474265,37.90712 V 12.892936 L 21.949968,0.38584326 Z" id="path23099" sodipodi:nodetypes="ccccccc"></path><text xml:space="preserve" id="text25506" style="font-weight:bold;font-size:6.48444px;line-height:1.1;font-family:'Linux Libertine O';-inkscape-font-specification:'Linux Libertine O Bold';font-variation-settings:normal;text-decoration:none;text-decoration-line:none;text-decoration-color:#000000;white-space:pre;display:inline;fill:#003f5f;fill-opacity:1;stroke:none;stroke-width:7.56073;stroke-linecap:butt;stroke-linejoin:miter;stroke-miterlimit:4.1215;stroke-dasharray:none;stroke-dashoffset:0;stroke-opacity:1;marker:none;marker-start:none;marker-mid:none;marker-end:none;paint-order:fill markers stroke;stop-color:#000000" transform="translate(-7.5640661,-1.0583331)"><textPath xlink:href="#path38761" id="textPath38763" style="stroke-width:7.56073"></textPath></text><path style="font-variation-settings:normal;fill:#c8a734;fill-opacity:1;stroke:#c8a734;stroke-width:0.660509;stroke-linecap:butt;stroke-linejoin:miter;stroke-miterlimit:4.1215;stroke-dasharray:none;stroke-dashoffset:0;stroke-opacity:1;marker:none;marker-start:none;marker-mid:none;marker-end:none;paint-order:fill markers stroke;stop-color:#000000" d="m 11.5019,43.618722 c 0,0 -10.2280331,-5.533105 -10.55497207,-6.099461 -0.15125412,-0.262019 17.52533507,12.167976 20.94320107,6.511506 3.688384,5.335844 21.276666,-6.501386 21.276666,-6.501386 l -10.247377,5.933688 c -5.715345,3.309442 -10.830276,6.38814 -10.917354,6.435479 -0.111664,0.0607 -3.056209,-1.978136 -10.500183,-6.279826 z" id="path24175" sodipodi:nodetypes="csccsscc"></path><path style="font-variation-settings:normal;fill:#2e7891;fill-opacity:1;stroke:#2e7891;stroke-width:0.660509;stroke-linecap:butt;stroke-linejoin:miter;stroke-miterlimit:4.1215;stroke-dasharray:none;stroke-dashoffset:0;stroke-opacity:1;marker:none;marker-start:none;marker-mid:none;marker-end:none;paint-order:fill markers stroke;stop-color:#000000" d="m 11.46794,7.1745401 c 0,0 -10.2280334,5.5331049 -10.55497242,6.0994609 C 0.76171345,13.53602 18.438303,1.1060247 21.856168,6.7624946 25.544553,1.4266507 43.132835,13.263881 43.132835,13.263881 L 32.885458,7.3301928 C 27.170112,4.0207512 22.055181,0.94205339 21.968103,0.89471348 21.856439,0.83400902 18.911894,2.8728497 11.467921,7.1745401 Z" id="path2493" sodipodi:nodetypes="csccsscc"></path><path style="color:#000000;font-variation-settings:normal;fill:none;fill-opacity:1;stroke:#000000;stroke-width:0.666815;stroke-linecap:butt;stroke-linejoin:miter;stroke-miterlimit:4.1215;stroke-dasharray:none;stroke-dashoffset:0;stroke-opacity:1;marker:none;marker-start:none;marker-mid:none;marker-end:none;paint-order:fill markers stroke;stop-color:#000000" d="M 43.425191,12.892936 V 37.90712 L 21.949968,50.414212 0.47474265,37.90712 V 12.892936 L 21.949968,0.38584326 Z" id="path26524"></path><path style="font-variation-settings:normal;opacity:0.564379;fill:none;fill-opacity:1;stroke:none;stroke-width:2.60738;stroke-linecap:butt;stroke-linejoin:miter;stroke-miterlimit:4.1215;stroke-dasharray:none;stroke-dashoffset:0;stroke-opacity:1;marker:none;marker-start:none;marker-mid:none;marker-end:none;paint-order:fill markers stroke;stop-color:#000000" d="m 3.8488335,18.761788 c 12.4351865,-3.521327 21.7786085,-4.982864 36.2022655,0" id="path38761" sodipodi:nodetypes="cc"></path><text xml:space="preserve" transform="matrix(0.26458334,0,0,0.26458332,35.256205,-40.457528)" id="text20" style="font-style:normal;font-variant:normal;font-weight:bold;font-stretch:normal;font-size:24.5081px;line-height:1.1;font-family:'MesloLGS NF';-inkscape-font-specification:'MesloLGS NF Bold';text-align:justify;text-decoration:none;text-decoration-line:none;text-decoration-color:#000000;writing-mode:lr-tb;direction:ltr;white-space:pre;shape-inside:url(#rect20);display:inline;fill:#003f5f;stroke:none;stroke-width:2.26772;stroke-linecap:round;stroke-miterlimit:4.1215;paint-order:fill markers stroke"><tspan x="-94.556641" y="203.18957" id="tspan3">bootpq</tspan></text><ellipse style="fill:#22586a;fill-opacity:1;stroke:none;stroke-width:0.155224;stroke-linecap:round;stroke-miterlimit:4.1215;-inkscape-stroke:none;paint-order:fill markers stroke" id="path1" cx="16.382383" cy="30.057375" rx="0.73797995" ry="0.73797989"></ellipse><ellipse style="font-variation-settings:normal;vector-effect:none;fill:#ad2103;fill-opacity:1;stroke:none;stroke-width:0.617962;stroke-linecap:butt;stroke-linejoin:miter;stroke-miterlimit:4.1215;stroke-dasharray:none;stroke-dashoffset:0;stroke-opacity:1;-inkscape-stroke:none;marker:none;marker-start:none;marker-mid:none;marker-end:none;paint-order:fill markers stroke;stop-color:#000000" id="path1-2" cx="9.1762915" cy="36.813946" rx="0.73797995" ry="0.73797989"></ellipse><ellipse style="font-variation-settings:normal;vector-effect:none;fill:#ad2103;fill-opacity:1;stroke:none;stroke-width:0.353351;stroke-linecap:butt;stroke-linejoin:miter;stroke-miterlimit:4.1215;stroke-dasharray:none;stroke-dashoffset:0;stroke-opacity:1;-inkscape-stroke:none;marker:none;marker-start:none;marker-mid:none;marker-end:none;paint-order:fill markers stroke;stop-color:#000000" id="path1-2-6" cx="6.5255342" cy="27.730993" rx="0.42197806" ry="0.42197803"></ellipse><ellipse style="font-variation-settings:normal;vector-effect:none;fill:#ad2103;fill-opacity:1;stroke:none;stroke-width:0.276173;stroke-linecap:butt;stroke-linejoin:miter;stroke-miterlimit:4.1215;stroke-dasharray:none;stroke-dashoffset:0;stroke-opacity:1;-inkscape-stroke:none;marker:none;marker-start:none;marker-mid:none;marker-end:none;paint-order:fill markers stroke;stop-color:#000000" id="path1-2-6-5" cx="10.383464" cy="21.950401" rx="0.32981086" ry="0.3298108"></ellipse><ellipse style="fill:#9b8328;fill-opacity:1;stroke:none;stroke-width:0.10976;stroke-linecap:round;stroke-miterlimit:4.1215;-inkscape-stroke:none;paint-order:fill markers stroke" id="path1-1" cx="14.807006" cy="34.216824" rx="0.73797995" ry="0.73797989"></ellipse><ellipse style="fill:#9b8328;fill-opacity:1;stroke:none;stroke-width:0.164592;stroke-linecap:round;stroke-miterlimit:4.1215;-inkscape-stroke:none;paint-order:fill markers stroke" id="path1-1-6" cx="5.3070569" cy="30.319708" rx="1.1066489" ry="1.1066487"></ellipse><ellipse style="fill:#9b8328;fill-opacity:1;stroke:none;stroke-width:0.0588446;stroke-linecap:round;stroke-miterlimit:4.1215;-inkscape-stroke:none;paint-order:fill markers stroke" id="path1-1-63" cx="14.913867" cy="30.840658" rx="0.39564455" ry="0.39564452"></ellipse><use id="use18" inkscape:spray-origin="#path1" xlink:href="#path1" transform="matrix(0.36688617,0,0,0.36688618,4.7264044,22.6647)" x="0" y="0" style="fill:#705f1e;fill-opacity:1"></use><use id="use19" inkscape:spray-origin="#path1" xlink:href="#path1" transform="matrix(1.7631407,0,0,1.7631407,-23.875324,-32.0816)" x="0" y="0" style="fill:#705f1e;fill-opacity:1"></use><use id="use20" inkscape:spray-origin="#path1" xlink:href="#path1" transform="matrix(0.22068676,0,0,0.22068676,7.6939086,22.502119)" x="0" y="0" style="fill:#705f1e;fill-opacity:1"></use><use id="use21" inkscape:spray-origin="#path1" xlink:href="#path1" transform="matrix(0.18390808,0,0,0.18390808,13.517457,29.209993)" x="0" y="0"></use><use id="use22" inkscape:spray-origin="#path1" xlink:href="#path1" transform="matrix(1.1822509,0,0,1.1822509,-13.961487,1.6845794)" x="0" y="0" style="fill:#705f1e;fill-opacity:1"></use><use id="use23" inkscape:spray-origin="#path1" xlink:href="#path1" transform="matrix(1.4258255,0,0,1.4258255,-7.5123269,-6.3004987)" x="0" y="0"></use><use id="use24" inkscape:spray-origin="#path1" xlink:href="#path1" transform="matrix(0.72971075,0,0,0.72971075,0.48157768,13.991413)" x="0" y="0"></use><use id="use25" inkscape:spray-origin="#path1" xlink:href="#path1" transform="matrix(5.3725648e-4,0,0,5.3725648e-4,12.355426,29.330517)" x="0" y="0" style="fill:#705f1e;fill-opacity:1"></use><use id="use26" inkscape:spray-origin="#path1" xlink:href="#path1" transform="matrix(0.78038636,0,0,0.78038636,-4.7075335,-2.3258956)" x="0" y="0"></use><use id="use27" inkscape:spray-origin="#path1" xlink:href="#path1" transform="matrix(1.1835755,0,0,1.1835755,-4.8725872,-6.9820157)" x="0" y="0"></use><use id="use28" inkscape:spray-origin="#path1" xlink:href="#path1" transform="matrix(1.1084742,0,0,1.1084742,-6.1559598,-1.7552579)" x="0" y="0"></use><use id="use29" inkscape:spray-origin="#path1" xlink:href="#path1" transform="matrix(0.84685229,0,0,0.84685229,-5.560343,3.2641842)" x="0" y="0" style="fill:#705f1e;fill-opacity:1"></use><use id="use30" inkscape:spray-origin="#path1" xlink:href="#path1" transform="matrix(1.5252091,0,0,1.5252091,-15.033588,-15.014522)" x="0" y="0" style="fill:#705f1e;fill-opacity:1"></use><use id="use33" inkscape:spray-origin="#path1" xlink:href="#path1" transform="matrix(1.4250113,0,0,1.4250113,-14.404115,-16.474607)" x="0" y="0"></use><use id="use35" inkscape:spray-origin="#path1" xlink:href="#path1" transform="matrix(0.12855024,0,0,0.12855025,14.560064,29.835632)" x="0" y="0" style="fill:#705f1e;fill-opacity:1"></use><use id="use36" inkscape:spray-origin="#path1" xlink:href="#path1" transform="matrix(0.82178927,0,0,0.82178927,-0.86292042,12.653684)" style="fill:#bea032;fill-opacity:1;stroke:#000000;stroke-width:0.0835733;stroke-linecap:round;stroke-miterlimit:4.1215;stroke-opacity:1;paint-order:fill markers stroke" x="0" y="0"></use><rect style="font-variation-settings:normal;opacity:1;vector-effect:none;fill:none;fill-opacity:1;stroke:#003f5f;stroke-width:0.431987;stroke-linecap:butt;stroke-linejoin:miter;stroke-miterlimit:4.1215;stroke-dasharray:none;stroke-dashoffset:0;stroke-opacity:0.597285;-inkscape-stroke:none;marker:none;marker-start:none;marker-mid:none;marker-end:none;paint-order:fill markers stroke" id="rect44" width="15.835617" height="20.32056" x="3.0610642" y="18.167913" rx="1.9672245" ry="2.0399964"></rect><ellipse style="fill:#22586a;fill-opacity:1;stroke:none;stroke-width:0.155224;stroke-linecap:round;stroke-miterlimit:4.1215;-inkscape-stroke:none;paint-order:fill markers stroke" id="ellipse44" cx="8.1655025" cy="-33.964592" rx="0.73797995" ry="0.73797989" transform="scale(1,-1)"></ellipse><ellipse style="font-variation-settings:normal;vector-effect:none;fill:#ad2103;fill-opacity:1;stroke:none;stroke-width:0.617962;stroke-linecap:butt;stroke-linejoin:miter;stroke-miterlimit:4.1215;stroke-dasharray:none;stroke-dashoffset:0;stroke-opacity:1;-inkscape-stroke:none;marker:none;marker-start:none;marker-mid:none;marker-end:none;paint-order:fill markers stroke;stop-color:#000000" id="ellipse45" cx="14.803035" cy="-25.451502" rx="0.73797995" ry="0.73797989" transform="scale(1,-1)"></ellipse><ellipse style="font-variation-settings:normal;vector-effect:none;fill:#ad2103;fill-opacity:1;stroke:none;stroke-width:0.353351;stroke-linecap:butt;stroke-linejoin:miter;stroke-miterlimit:4.1215;stroke-dasharray:none;stroke-dashoffset:0;stroke-opacity:1;-inkscape-stroke:none;marker:none;marker-start:none;marker-mid:none;marker-end:none;paint-order:fill markers stroke;stop-color:#000000" id="ellipse46" cx="12.702365" cy="-27.992075" rx="0.42197806" ry="0.42197803" transform="scale(1,-1)"></ellipse><ellipse style="font-variation-settings:normal;vector-effect:none;fill:#ad2103;fill-opacity:1;stroke:none;stroke-width:0.276173;stroke-linecap:butt;stroke-linejoin:miter;stroke-miterlimit:4.1215;stroke-dasharray:none;stroke-dashoffset:0;stroke-opacity:1;-inkscape-stroke:none;marker:none;marker-start:none;marker-mid:none;marker-end:none;paint-order:fill markers stroke;stop-color:#000000" id="ellipse47" cx="13.547582" cy="-30.426313" rx="0.32981086" ry="0.3298108" transform="scale(1,-1)"></ellipse><ellipse style="fill:#9b8328;fill-opacity:1;stroke:none;stroke-width:0.10976;stroke-linecap:round;stroke-miterlimit:4.1215;-inkscape-stroke:none;paint-order:fill markers stroke" id="ellipse48" cx="11.449162" cy="-24.276625" rx="0.73797995" ry="0.73797989" transform="scale(1,-1)"></ellipse><ellipse style="fill:#9b8328;fill-opacity:1;stroke:none;stroke-width:0.164592;stroke-linecap:round;stroke-miterlimit:4.1215;-inkscape-stroke:none;paint-order:fill markers stroke" id="ellipse49" cx="4.7533832" cy="-25.138906" rx="1.1066489" ry="1.1066487" transform="scale(1,-1)"></ellipse><ellipse style="fill:#9b8328;fill-opacity:1;stroke:none;stroke-width:0.0588446;stroke-linecap:round;stroke-miterlimit:4.1215;-inkscape-stroke:none;paint-order:fill markers stroke" id="ellipse50" cx="7.8450513" cy="-31.002916" rx="0.39564455" ry="0.39564452" transform="scale(1,-1)"></ellipse><use id="use50" inkscape:spray-origin="#path1" xlink:href="#path1" transform="matrix(0.36688617,0,0,-0.36688618,8.1046276,43.21975)" x="0" y="0" style="fill:#705f1e;fill-opacity:1"></use><use id="use51" inkscape:spray-origin="#path1" xlink:href="#path1" transform="matrix(1.7631407,0,0,-1.7631407,-20.831321,76.633239)" x="0" y="0" style="fill:#705f1e;fill-opacity:1"></use><use id="use52" inkscape:spray-origin="#path1" xlink:href="#path1" transform="matrix(0.22068676,0,0,-0.22068676,7.9374856,34.93801)" x="0" y="0" style="fill:#705f1e;fill-opacity:1"></use><use id="use53" inkscape:spray-origin="#path1" xlink:href="#path1" transform="matrix(0.18390808,0,0,-0.18390808,7.1514716,33.968328)" x="0" y="0"></use><use id="use54" inkscape:spray-origin="#path1" xlink:href="#path1" transform="matrix(1.1822509,0,0,-1.1822509,-8.446473,55.089681)" x="0" y="0" style="fill:#705f1e;fill-opacity:1"></use><use id="use55" inkscape:spray-origin="#path1" xlink:href="#path1" transform="matrix(1.4258255,0,0,-1.4258255,-6.7905682,65.611953)" x="0" y="0"></use><use id="use56" inkscape:spray-origin="#path1" xlink:href="#path1" transform="matrix(0.72971075,0,0,-0.72971075,0.43050718,44.299566)" x="0" y="0"></use><use id="use57" inkscape:spray-origin="#path1" xlink:href="#path1" transform="matrix(5.3725648e-4,0,0,-5.3725648e-4,14.212722,23.257923)" x="0" y="0" style="fill:#705f1e;fill-opacity:1"></use><use id="use58" inkscape:spray-origin="#path1" xlink:href="#path1" transform="matrix(0.78038636,0,0,-0.78038636,3.2418431,55.733524)" x="0" y="0"></use><use id="use59" inkscape:spray-origin="#path1" xlink:href="#path1" transform="matrix(1.1835755,0,0,-1.1835755,-7.8594756,62.35299)" x="0" y="0"></use><use id="use60" inkscape:spray-origin="#path1" xlink:href="#path1" transform="matrix(1.1084742,0,0,-1.1084742,-1.9173751,52.848841)" x="0" y="0"></use><use id="use61" inkscape:spray-origin="#path1" xlink:href="#path1" transform="matrix(0.84685229,0,0,-0.84685229,3.1659805,53.192139)" x="0" y="0" style="fill:#705f1e;fill-opacity:1"></use><use id="use62" inkscape:spray-origin="#path1" xlink:href="#path1" transform="matrix(1.5252091,0,0,-1.5252091,-11.13795,66.619003)" x="0" y="0" style="fill:#705f1e;fill-opacity:1"></use><use id="use63" inkscape:spray-origin="#path1" xlink:href="#path1" transform="matrix(1.4250113,0,0,-1.4250113,-18.180602,77.245267)" x="0" y="0"></use><use id="use64" inkscape:spray-origin="#path1" xlink:href="#path1" transform="matrix(0.12855024,0,0,-0.12855025,11.407698,30.621607)" x="0" y="0" style="fill:#705f1e;fill-opacity:1"></use><use id="use65" inkscape:spray-origin="#path1" xlink:href="#path1" transform="matrix(0.82178927,0,0,-0.82178927,4.5461665,50.305116)" style="fill:#bea032;fill-opacity:1;stroke:#000000;stroke-width:0.0835733;stroke-linecap:round;stroke-miterlimit:4.1215;stroke-opacity:1;paint-order:fill markers stroke" x="0" y="0"></use><circle style="font-variation-settings:normal;opacity:1;vector-effect:none;fill:#40a1c2;fill-opacity:0.246606;stroke:#003f5f;stroke-width:0.122392;stroke-linecap:round;stroke-linejoin:miter;stroke-miterlimit:4.1215;stroke-dasharray:none;stroke-dashoffset:0;stroke-opacity:1;-inkscape-stroke:none;marker:none;marker-start:none;marker-mid:none;marker-end:none;paint-order:fill markers stroke" id="path65-9" cx="12.102656" cy="21.723021" r="3.4467609"></circle><g id="g72" transform="matrix(1.1219119,0,0,1.1219119,-4.2055406,3.3632501)"><circle style="font-variation-settings:normal;vector-effect:none;fill:#40a1c2;fill-opacity:0.246606;stroke:#003f5f;stroke-width:0.122392;stroke-linecap:round;stroke-linejoin:miter;stroke-miterlimit:4.1215;stroke-dasharray:none;stroke-dashoffset:0;stroke-opacity:1;-inkscape-stroke:none;marker:none;marker-start:none;marker-mid:none;marker-end:none;paint-order:fill markers stroke" id="path65-9-0" cx="28.193594" cy="14.82336" r="3.4467609"></circle><ellipse style="font-variation-settings:normal;vector-effect:none;fill:#ad2103;fill-opacity:1;stroke:none;stroke-width:0.276173;stroke-linecap:butt;stroke-linejoin:miter;stroke-miterlimit:4.1215;stroke-dasharray:none;stroke-dashoffset:0;stroke-opacity:1;-inkscape-stroke:none;marker:none;marker-start:none;marker-mid:none;marker-end:none;paint-order:fill markers stroke;stop-color:#000000" id="path1-2-6-5-6" cx="26.474401" cy="15.050741" rx="0.32981086" ry="0.3298108"></ellipse><ellipse style="fill:#9b8328;fill-opacity:1;stroke:none;stroke-width:0.10976;stroke-linecap:round;stroke-miterlimit:4.1215;-inkscape-stroke:none;paint-order:fill markers stroke" id="ellipse48-1" cx="27.540098" cy="-17.376966" rx="0.73797995" ry="0.73797989" transform="scale(1,-1)"></ellipse><use id="use54-5" inkscape:spray-origin="#path1" xlink:href="#path1" transform="matrix(1.1822509,0,0,-1.1822509,7.6444639,48.19002)" x="0" y="0" style="fill:#705f1e;fill-opacity:1"></use><use id="use56-9" inkscape:spray-origin="#path1" xlink:href="#path1" transform="matrix(0.72971075,0,0,-0.72971075,16.521443,37.399905)" x="0" y="0"></use><use id="use57-4" inkscape:spray-origin="#path1" xlink:href="#path1" transform="matrix(5.3725648e-4,0,0,-5.3725648e-4,30.303658,16.358262)" x="0" y="0" style="fill:#705f1e;fill-opacity:1"></use><use id="use62-9" inkscape:spray-origin="#path1" xlink:href="#path1" transform="matrix(1.5252091,0,0,-1.5252091,4.9529868,59.719342)" x="0" y="0" style="fill:#705f1e;fill-opacity:1"></use></g><circle style="font-variation-settings:normal;opacity:1;vector-effect:none;fill:#40a1c2;fill-opacity:0.246606;stroke:#003f5f;stroke-width:0.122392;stroke-linecap:round;stroke-linejoin:miter;stroke-miterlimit:4.1215;stroke-dasharray:none;stroke-dashoffset:0;stroke-opacity:1;-inkscape-stroke:none;marker:none;marker-start:none;marker-mid:none;marker-end:none;paint-order:fill markers stroke" id="path65-6" cx="10.60539" cy="26.709801" r="3.4467609"></circle><g id="g70" transform="matrix(1.1219119,0,0,1.1219119,-12.703577,5.2975625)"><circle style="font-variation-settings:normal;vector-effect:none;fill:#40a1c2;fill-opacity:0.246606;stroke:#003f5f;stroke-width:0.122392;stroke-linecap:round;stroke-linejoin:miter;stroke-miterlimit:4.1215;stroke-dasharray:none;stroke-dashoffset:0;stroke-opacity:1;-inkscape-stroke:none;marker:none;marker-start:none;marker-mid:none;marker-end:none;paint-order:fill markers stroke" id="path65-6-3" cx="35.768196" cy="20.53381" r="3.4467609"></circle><use id="use20-7" inkscape:spray-origin="#path1" xlink:href="#path1" transform="matrix(0.22068676,0,0,0.22068676,32.856713,16.326125)" x="0" y="0" style="fill:#705f1e;fill-opacity:1"></use><use id="use25-7" inkscape:spray-origin="#path1" xlink:href="#path1" transform="matrix(5.3725648e-4,0,0,5.3725648e-4,37.51823,23.154523)" x="0" y="0" style="fill:#705f1e;fill-opacity:1"></use><use id="use29-1" inkscape:spray-origin="#path1" xlink:href="#path1" transform="matrix(0.84685229,0,0,0.84685229,19.872388,-3.0779182)" x="0" y="0" style="fill:#705f1e;fill-opacity:1"></use><use id="use33-1" inkscape:spray-origin="#path1" xlink:href="#path1" transform="matrix(1.4250113,0,0,1.4250113,10.758689,-22.650601)" x="0" y="0"></use><ellipse style="font-variation-settings:normal;vector-effect:none;fill:#ad2103;fill-opacity:1;stroke:none;stroke-width:0.353351;stroke-linecap:butt;stroke-linejoin:miter;stroke-miterlimit:4.1215;stroke-dasharray:none;stroke-dashoffset:0;stroke-opacity:1;-inkscape-stroke:none;marker:none;marker-start:none;marker-mid:none;marker-end:none;paint-order:fill markers stroke;stop-color:#000000" id="ellipse46-5" cx="37.86517" cy="-21.816084" rx="0.42197806" ry="0.42197803" transform="scale(1,-1)"></ellipse><ellipse style="fill:#9b8328;fill-opacity:1;stroke:none;stroke-width:0.10976;stroke-linecap:round;stroke-miterlimit:4.1215;-inkscape-stroke:none;paint-order:fill markers stroke" id="ellipse48-9" cx="36.611969" cy="-18.100634" rx="0.73797995" ry="0.73797989" transform="scale(1,-1)"></ellipse><use id="use52-7" inkscape:spray-origin="#path1" xlink:href="#path1" transform="matrix(0.22068676,0,0,-0.22068676,33.10029,28.762016)" x="0" y="0" style="fill:#705f1e;fill-opacity:1"></use><use id="use53-7" inkscape:spray-origin="#path1" xlink:href="#path1" transform="matrix(0.18390808,0,0,-0.18390808,32.314276,27.792334)" x="0" y="0"></use><use id="use59-6" inkscape:spray-origin="#path1" xlink:href="#path1" transform="matrix(1.1835755,0,0,-1.1835755,17.303329,56.176996)" x="0" y="0"></use><use id="use64-7" inkscape:spray-origin="#path1" xlink:href="#path1" transform="matrix(0.12855024,0,0,-0.12855025,36.570502,24.445613)" x="0" y="0" style="fill:#705f1e;fill-opacity:1"></use></g><circle style="font-variation-settings:normal;opacity:1;vector-effect:none;fill:#40a1c2;fill-opacity:0.246606;stroke:#003f5f;stroke-width:0.122392;stroke-linecap:round;stroke-linejoin:miter;stroke-miterlimit:4.1215;stroke-dasharray:none;stroke-dashoffset:0;stroke-opacity:1;-inkscape-stroke:none;marker:none;marker-start:none;marker-mid:none;marker-end:none;paint-order:fill markers stroke" id="path65-2" cx="13.868733" cy="32.708599" r="3.4467609"></circle><g id="g71" transform="matrix(1.1219119,0,0,1.1219119,-13.038947,2.9056937)"><circle style="font-variation-settings:normal;vector-effect:none;fill:#40a1c2;fill-opacity:0.246606;stroke:#003f5f;stroke-width:0.122392;stroke-linecap:round;stroke-linejoin:miter;stroke-miterlimit:4.1215;stroke-dasharray:none;stroke-dashoffset:0;stroke-opacity:1;-inkscape-stroke:none;marker:none;marker-start:none;marker-mid:none;marker-end:none;paint-order:fill markers stroke" id="path65-2-6" cx="36.067123" cy="30.100338" r="3.4467609"></circle><ellipse style="fill:#9b8328;fill-opacity:1;stroke:none;stroke-width:0.10976;stroke-linecap:round;stroke-miterlimit:4.1215;-inkscape-stroke:none;paint-order:fill markers stroke" id="path1-1-0" cx="37.005398" cy="31.608562" rx="0.73797995" ry="0.73797989"></ellipse><ellipse style="fill:#9b8328;fill-opacity:1;stroke:none;stroke-width:0.0588446;stroke-linecap:round;stroke-miterlimit:4.1215;-inkscape-stroke:none;paint-order:fill markers stroke" id="path1-1-63-4" cx="37.112259" cy="28.232399" rx="0.39564455" ry="0.39564452"></ellipse><use id="use18-8" inkscape:spray-origin="#path1" xlink:href="#path1" transform="matrix(0.36688617,0,0,0.36688618,26.924797,20.056439)" x="0" y="0" style="fill:#705f1e;fill-opacity:1"></use><use id="use21-7" inkscape:spray-origin="#path1" xlink:href="#path1" transform="matrix(0.18390808,0,0,0.18390808,35.71585,26.601732)" x="0" y="0"></use><use id="use25-1" inkscape:spray-origin="#path1" xlink:href="#path1" transform="matrix(5.3725648e-4,0,0,5.3725648e-4,34.553819,26.722256)" x="0" y="0" style="fill:#705f1e;fill-opacity:1"></use><use id="use28-7" inkscape:spray-origin="#path1" xlink:href="#path1" transform="matrix(1.1084742,0,0,1.1084742,16.042434,-4.3635191)" x="0" y="0"></use><use id="use35-2" inkscape:spray-origin="#path1" xlink:href="#path1" transform="matrix(0.12855024,0,0,0.12855025,36.758457,27.227371)" x="0" y="0" style="fill:#705f1e;fill-opacity:1"></use><ellipse style="font-variation-settings:normal;vector-effect:none;fill:#ad2103;fill-opacity:1;stroke:none;stroke-width:0.276173;stroke-linecap:butt;stroke-linejoin:miter;stroke-miterlimit:4.1215;stroke-dasharray:none;stroke-dashoffset:0;stroke-opacity:1;-inkscape-stroke:none;marker:none;marker-start:none;marker-mid:none;marker-end:none;paint-order:fill markers stroke;stop-color:#000000" id="ellipse47-7" cx="35.745972" cy="-27.818054" rx="0.32981086" ry="0.3298108" transform="scale(1,-1)"></ellipse><use id="use50-2" inkscape:spray-origin="#path1" xlink:href="#path1" transform="matrix(0.36688617,0,0,-0.36688618,30.303021,40.611489)" x="0" y="0" style="fill:#705f1e;fill-opacity:1"></use><use id="use58-2" inkscape:spray-origin="#path1" xlink:href="#path1" transform="matrix(0.78038636,0,0,-0.78038636,25.440237,53.125263)" x="0" y="0"></use></g><path style="font-variation-settings:normal;opacity:1;fill:none;fill-opacity:1;stroke:#003f5f;stroke-width:0.187;stroke-linecap:round;stroke-linejoin:miter;stroke-miterlimit:4.1215;stroke-dasharray:none;stroke-dashoffset:0;stroke-opacity:1;marker:none;marker-start:none;marker-mid:none;marker-end:url(#ConcaveTriangle);paint-order:fill markers stroke" d="m 15.856664,21.318405 c 3.859251,0 0.397255,-1.497706 6.114669,-1.174568" id="path73" sodipodi:nodetypes="cc"></path><path style="font-variation-settings:normal;fill:none;fill-opacity:1;stroke:#003f5f;stroke-width:0.187;stroke-linecap:round;stroke-linejoin:miter;stroke-miterlimit:4.1215;stroke-dasharray:none;stroke-dashoffset:0;stroke-opacity:1;marker:none;marker-start:none;marker-mid:none;marker-end:url(#ConcaveTriangle-3);paint-order:fill markers stroke" d="m 16.736248,35.064392 c 2.171046,2.171046 1.455708,1.908805 5.41127,1.938037" id="path73-1" sodipodi:nodetypes="cc"></path><path style="font-variation-settings:normal;fill:none;fill-opacity:1;stroke:#003f5f;stroke-width:0.187;stroke-linecap:round;stroke-linejoin:miter;stroke-miterlimit:4.1215;stroke-dasharray:none;stroke-dashoffset:0;stroke-opacity:1;marker:none;marker-start:none;marker-mid:none;marker-end:url(#ConcaveTriangle-3-2);paint-order:fill markers stroke" d="m 14.149142,26.554278 c 7.064413,-0.04715 2.21746,2.114222 7.998376,2.114222" id="path73-1-0" sodipodi:nodetypes="cc"></path><text xml:space="preserve" transform="matrix(0.20621648,0,0,0.20621647,54.15698,-11.87292)" id="text20-0" style="font-style:normal;font-variant:normal;font-weight:normal;font-stretch:normal;font-size:24.5081px;line-height:1.1;font-family:'Latin Modern Math';-inkscape-font-specification:'Latin Modern Math';text-align:justify;text-decoration:none;text-decoration-line:none;text-decoration-color:#000000;writing-mode:lr-tb;direction:ltr;white-space:pre;shape-inside:url(#rect20-8);display:inline;fill:#003f5f;stroke:none;stroke-width:2.26772;stroke-linecap:round;stroke-miterlimit:4.1215;paint-order:fill markers stroke"><tspan x="-94.556641" y="204.32268" id="tspan4">f(x)</tspan></text><path style="font-variation-settings:normal;opacity:1;fill:none;fill-opacity:1;stroke:#003f5f;stroke-width:0.187;stroke-linecap:round;stroke-linejoin:miter;stroke-miterlimit:4.1215;stroke-dasharray:none;stroke-dashoffset:0;stroke-opacity:1;marker:none;marker-start:none;marker-mid:none;paint-order:fill markers stroke" d="m 30.775956,15.883859 1.895133,2.942504 v 8.921506 l 0.838235,0.50753 -0.838235,0.611162 v 8.817874 l -1.895133,2.942505" id="path74" sodipodi:nodetypes="ccccccc"></path></svg>